<svg width="1538" height="1538" viewBox="0 0 1538 1538" fill="none" xmlns="http://www.w3.org/2000/svg">
<path d="M1044.97 402.535C1015.03 395.666 979.658 425.913 977.71 446.317C1185.75 629.954 1192.11 830.202 1172.32 951.198L1146.68 947.088C1181.55 760.582 1113.87 614.267 1013.6 518.091C955.255 454.622 869.025 401.51 811.914 373.621C752.034 349.833 698.614 334.658 633.813 338.35C679.953 378.748 678.928 465.593 630.737 520.039C662.215 426.733 623.97 364.701 589.109 333.325C545.635 337.529 450.381 361.625 415.212 388.283C415.315 392.795 417.058 408.277 420.441 418.633C445.255 439.55 462.07 450.008 500.315 473.694C478.475 472.258 466.787 468.567 443.306 463.953C610.846 725.516 996.371 565.564 1125.46 773.706C1027.23 699.882 857.336 664.816 801.045 669.02C814.887 683.99 835.599 701.933 852.825 714.852C748.343 699.575 704.151 700.292 658.114 675.069C626.533 660.714 612.384 631.287 562.758 608.627C494.676 577.765 407.112 511.836 394.295 380.388C498.879 321.432 704.151 251.094 1044.97 402.535Z" fill="#C3C4BE" stroke="#001010" stroke-width="0.0022078" stroke-linecap="square"/>
<path d="M1023.75 932.838C1002.42 930.788 954.436 930.788 944.387 928.328C1019.75 914.998 1071.32 887.416 1116.95 817.796C1120.23 863.628 1078.7 899.31 1023.75 932.838Z" fill="#9CC0AC" stroke="#001010" stroke-width="0.0022078" stroke-linecap="square"/>
<path d="M1114.08 1139.34C1093.16 1187.43 1061.89 1235.21 1043.54 1265.66C1041.56 1265.46 1038.38 1264.71 1034 1263.41C1038.31 1181.18 1036.26 1127.65 1034.51 1102.43C1053.38 1109.81 1084.96 1123.76 1114.08 1139.34Z" fill="#9CC0AC" stroke="#001010" stroke-width="0.0022078" stroke-linecap="square"/>
<path d="M1401.99 997.228C1395.84 1052.29 1324.37 1155.44 1260.19 1224.96C1181.55 1168.77 1019.75 1083.57 843.904 1032.3C661.6 986.158 541.943 977.138 359.024 1012.1C452.124 973.958 585.418 918.488 910.038 928.328C1084.96 929.768 1228.71 957.958 1401.99 997.228Z" fill="#26A5B8" stroke="#001010" stroke-width="0.0022078" stroke-linecap="square"/>
<path d="M1154.17 1312.63C1043.84 1234.49 624.381 1175.33 367.535 1291.91C611.256 1475.45 900.708 1463.76 1154.17 1312.63Z" fill="#26A5B8" stroke="#001010" stroke-width="0.0022078" stroke-linecap="square"/>
<path d="M321.086 1255.21C295.043 1241.57 223.372 1168.16 198.046 1112.48C365.278 1074.23 630.019 1039.68 845.134 1172.36C575.472 1141.39 445.664 1166.62 321.086 1255.21Z" fill="#26A5B8" stroke="#001010" stroke-width="0.0022078" stroke-linecap="square"/>
<path d="M161.853 1038.25C146.575 1004.61 112.842 937.758 103.511 828.565C157.136 809.391 489.549 754.434 721.89 846.714C513.542 851.943 302.529 935.918 161.853 1038.25Z" fill="#C8BAA0" stroke="#001010" stroke-width="0.0022078" stroke-linecap="square"/>
<path d="M1437.26 880.444C1499.81 -57.3265 242.546 -179.034 99 737L140.013 740.384C292.89 -115.155 1436.14 -1.75348 1395.84 876.856L1437.26 880.444Z" fill="#C8BAA0" stroke="#001010" stroke-width="0.0022078" stroke-linecap="square"/>
<path d="M517.336 382.645C530.973 382.645 542.047 392.283 542.047 404.177C542.047 415.968 530.973 425.606 517.336 425.606C503.699 425.606 492.626 415.968 492.626 404.177C492.626 392.283 503.699 382.645 517.336 382.645Z" fill="#C3C4BE" stroke="#001010" stroke-width="0.0022078" stroke-linecap="square"/>
</svg>
